<svg xmlns="http://www.w3.org/2000/svg" viewBox="170 240 190 190">
  <path fill="#ef7e24" d="M304.23,281.23c14.18,0,29.62,7.97,34.26,27.33l12.94-7.89v-48.25l-47.96,28.81c.25-.01.5,0,.76,0Z"/>
  <path fill="#ef7e24" d="M300.55,290.75c-1.43-.08-3.27-.05-4.78-.06-1.78,0-5.02-.03-8.06,0l-43.46,26.09c9.72,0,24.99.07,31.96-.05,2.05-.04,4.25.03,6.31.36,5.09.8,13.72,5.24,14.37,16.67v100.06l28.83-17.56v-101.59c-.96-13.49-11.67-23.17-25.18-23.92Z"/>
  <path fill="#ef7e24" d="M263.57,330.2c-6.87.14-30.26,0-41.63,0l-47.07,28.27h47.88c2.36,0,7.54.04,9.6,0,3.7-.08,3.97-.18,6.99.63,5.12,1.37,9.88,5.58,11.64,11.35.27.89.75,4.06.75,4.98v58.39l28.83-17.56s-.22-62.53,0-65.53c1.18-15.72-10.52-20.66-16.97-20.53Z"/>
</svg>
