<svg id="Capa_2" data-name="Capa 2" xmlns="http://www.w3.org/2000/svg" viewBox="200 318 600 155">
  <defs>
    <style>
      .cls-1 { fill: #ff7f17; }
      .cls-3 { fill: #fafbf8; }
    </style>
  </defs>
  <g id="Capa_1" data-name="Capa 1">
    <g>
      <g transform="translate(150,200) scale(0.5208,0.5208)">
        <g>
          <g>
            <rect class="cls-3" x="999.7" y="339.15" width="29.53" height="131.61"/>
            <path class="cls-3" d="M616.88,334.76c-38.47,0-67.01,29.78-67.01,68.25s29.04,67.75,68.25,67.75c27.38,0,43.84-12.79,53.87-25.76.54-.7.36-1.71-.37-2.19l-19.77-13.18c-.68-.45-1.59-.28-2.08.37-7.5,9.91-19.25,15.19-32.15,15.19-17.76,0-31.9-9.49-36.4-29.55-.34-1.52.83-2.96,2.38-2.96h97.75c.84,0,1.53-.68,1.53-1.53v-.71c0-52.86-32.01-75.69-66.01-75.69ZM648.35,391.84h-64.97c-1.57,0-2.77-1.45-2.44-2.99,4.14-19.35,18.66-29.02,35.44-29.02,18.42,0,30.99,11.23,34.31,29.21.27,1.46-.86,2.81-2.34,2.81Z"/>
            <path class="cls-3" d="M1116.23,334.76c-38.47,0-67.01,29.78-67.01,68.25s29.04,67.75,68.25,67.75c27.38,0,43.84-12.79,53.87-25.76.54-.7.36-1.71-.37-2.19l-19.77-13.18c-.68-.45-1.58-.28-2.08.37-7.5,9.91-19.25,15.19-32.15,15.19-17.76,0-31.9-9.49-36.4-29.55-.34-1.52.83-2.96,2.38-2.96h97.75c.84,0,1.53-.68,1.53-1.53v-.71c0-52.86-32.01-75.69-66.01-75.69ZM1147.7,391.84h-64.97c-1.57,0-2.77-1.45-2.44-2.99,4.14-19.35,18.66-29.02,35.44-29.02,18.42,0,30.99,11.23,34.31,29.21.27,1.46-.86,2.81-2.34,2.81Z"/>
            <path class="cls-3" d="M773.38,334.76c-20.6,0-33.89,10.65-40.53,21.5h-.15v-17.11s-29.78,0-29.78,0v131.61h29.78l.21-73.53c0-20.85,11.42-34.5,31.77-34.5s27.8,13.15,27.8,34v74.03s29.78,0,29.78,0v-80.73c0-33.26-16.37-55.27-48.88-55.27Z"/>
            <path class="cls-3" d="M949.95,339.15v17.09h-.49c-6.89-11.61-24.41-21.48-44.18-21.48-36.07,0-63.01,29.78-63.01,68.07s27.67,67.93,62.99,67.93c20.01,0,36.78-9.6,44.19-22.44h.49l.02,11.25c-2.18,23.88-21.99,33.3-41.59,33.3-22.15,0-29.12-7.11-37.13-12.18l-16.05,20.6c13.14,12.42,32.62,18.78,57.08,18.78,32.23,0,58.67-16.83,66.03-46.26.52-2.09,1.36-9.79,1.36-12.47,0-21.97,0-122.19,0-122.19h-29.72ZM911.44,444.82c-22.73,0-38.54-18.28-38.54-41.5s15.81-41.75,38.54-41.75,38.53,18.03,38.53,41.75-15.81,41.5-38.53,41.5Z"/>
            <path class="cls-3" d="M497,360.95v-21.79s-29.77-.02-29.77-.02v131.61s29.78,0,29.78,0v-68.61c-.49-20.7,11.66-35.9,31.02-35.98,4.47-.02,8.88,1.32,12.41,2.81v-32.35c-1.98-.74-5.67-1.87-9.39-1.87-16.13,0-28.91,9.14-34.04,26.2Z"/>
            <path class="cls-3" d="M419.07,439.27c-4.12,2.33-9.53,5.42-17.53,5.43-3.38,0-6.87-1-9.98-2.37-3.81-1.67-7.56-4.08-9.95-7.47-1.33-1.89-2.15-3.17-3.11-5.9-.71-2-1.33-5.97-1.4-8.38,0-.25-.03-.5-.04-.75,0-.59,0-1.17,0-1.76,0-.71,0-1.42,0-2.12,0-.82,0-1.64,0-2.47,0-.93,0-1.85,0-2.78,0-1.02,0-2.04,0-3.06,0-1.11,0-2.21,0-3.32,0-1.18,0-2.36,0-3.54,0-1.25,0-2.49,0-3.74,0-1.3,0-2.61,0-3.91,0-1.35,0-2.7,0-4.05,0-1.39,0-2.77,0-4.16,0-1.41,0-2.83,0-4.24,0-1.43,0-2.86,0-4.3,0-1.44,0-2.88,0-4.32,0-1.44,0-2.88,0-4.32,0-1.43,0-2.86,0-4.28,0-1.41,0-2.82,0-4.22,0-1.38,0-2.76,0-4.13,0-1.34,0-2.68,0-4.01s0-2.58,0-3.87c0-1.23,0-2.46,0-3.69,0-1.16,0-2.32,0-3.49,0-1.08,0-2.17,0-3.25,0-1,0-1.99,0-2.99,0-.9,0-1.8,0-2.7,0-.79,0-1.59,0-2.38,0-.68,0-1.36,0-2.03,0-.55,0-1.1,0-1.66.01-1.46.79-2.68,2.81-2.69,9.15-.06,55.77,0,55.77,0v-29.84h-56.1c-1.1,0-2.46-1.03-2.5-2.62v-41.95l-29.57,17.77-.14,151.97c-1.25,32.27,24.2,53.09,44.69,53.12,15.62.7,28.31-2.31,37.45-6.9,10.07-5.07,17.6-12.3,22.6-18.88l-21.92-15.29s-6.07,6.76-11.01,9.56Z"/>
          </g>
          <g>
            <path class="cls-1" d="M274.02,310.4c14.91,0,31.15,8.38,36.03,28.75l13.61-8.29v-50.75l-50.44,30.3c.26-.01.52,0,.8,0Z"/>
            <path class="cls-1" d="M270.15,320.41c-1.5-.08-3.44-.06-5.02-.06-1.88,0-5.28-.03-8.47,0l-45.71,27.44c10.22,0,26.28.07,33.62-.06,2.15-.04,4.47.03,6.64.38,5.36.85,14.43,5.51,15.12,17.53v105.24l30.32-18.46v-106.85c-1.01-14.19-12.28-24.37-26.48-25.16Z"/>
            <path class="cls-1" d="M231.26,361.9c-7.23.15-31.83,0-43.78,0l-49.51,29.74h50.36c2.48,0,7.93.05,10.1,0,3.89-.09,4.17-.19,7.35.66,5.38,1.44,10.39,5.86,12.24,11.94.28.93.79,4.27.79,5.24v61.41l30.32-18.47s-.24-65.77,0-68.92c1.24-16.53-11.06-21.73-17.85-21.59Z"/>
          </g>
        </g>
        <path class="cls-3" d="M1014.1,287.31c-9.67,0-17.4,7.98-17.4,17.64,0,10.15,7.73,17.64,17.4,17.64,10.15,0,18.13-7.49,18.13-17.64s-7.98-17.64-18.13-17.64Z"/>
      </g>
    </g>
  </g>
</svg>
