<svg id="Capa_2" data-name="Capa 2" xmlns="http://www.w3.org/2000/svg" viewBox="150 200 1100 400">
  <g id="Capa_1" data-name="Capa 1">
    <g>
      <text font-family="sans-serif" font-weight="300" letter-spacing=".05em" font-size="45px" fill="#ffffff" transform="translate(372 546)">
        engineering | innovation | excellence
      </text>
      <g>
        <rect fill="#ffffff" x="994.22" y="308.56" width="28.08" height="125.13"/>
        <path fill="#ffffff" d="M630.23,304.39c-36.57,0-63.71,28.32-63.71,64.89s27.61,64.42,64.89,64.42c26.03,0,41.68-12.16,51.22-24.49.51-.66.34-1.62-.35-2.09l-18.79-12.53c-.65-.43-1.51-.27-1.98.35-7.13,9.42-18.3,14.45-30.57,14.45-16.89,0-30.34-9.02-34.61-28.1-.32-1.44.79-2.82,2.27-2.82h92.95c.8,0,1.45-.65,1.45-1.45v-.67c0-50.26-30.44-71.97-62.77-71.97ZM660.15,358.66h-61.77c-1.5,0-2.63-1.38-2.32-2.84,3.93-18.4,17.75-27.6,33.7-27.6,17.51,0,29.47,10.68,32.62,27.77.26,1.39-.82,2.67-2.23,2.67Z"/>
        <path fill="#ffffff" d="M1105.01,304.39c-36.57,0-63.71,28.32-63.71,64.89s27.61,64.42,64.89,64.42c26.03,0,41.68-12.16,51.22-24.49.51-.66.34-1.62-.35-2.09l-18.79-12.53c-.65-.43-1.51-.27-1.98.35-7.13,9.42-18.3,14.45-30.57,14.45-16.89,0-30.34-9.02-34.61-28.1-.32-1.44.79-2.82,2.27-2.82h92.95c.8,0,1.45-.65,1.45-1.45v-.67c0-50.26-30.44-71.97-62.77-71.97ZM1134.93,358.66h-61.77c-1.5,0-2.63-1.38-2.32-2.84,3.93-18.4,17.75-27.6,33.7-27.6,17.51,0,29.47,10.68,32.62,27.77.26,1.39-.82,2.67-2.23,2.67Z"/>
        <path fill="#ffffff" d="M779.03,304.39c-19.59,0-32.22,10.13-38.53,20.44h-.14v-16.27s-28.31,0-28.31,0v125.13h28.32l.2-69.92c0-19.82,10.86-32.8,30.2-32.8s26.43,12.51,26.43,32.33v70.39s28.31,0,28.31,0v-76.76c0-31.62-15.56-52.55-46.47-52.55Z"/>
        <path fill="#ffffff" d="M946.92,308.57v16.25h-.47c-6.55-11.04-23.21-20.42-42-20.42-34.29,0-59.91,28.32-59.91,64.72s26.31,64.59,59.89,64.59c19.02,0,34.97-9.13,42.02-21.34h.47l.02,10.69c-2.07,22.71-20.91,31.66-39.55,31.66-21.06,0-27.69-6.76-35.3-11.58l-15.26,19.59c12.5,11.81,31.02,17.86,54.27,17.86,30.65,0,55.78-16,62.78-43.99.5-1.99,1.29-9.31,1.29-11.86,0-20.89,0-116.18,0-116.18h-28.26ZM910.3,409.04c-21.61,0-36.64-17.38-36.64-39.46s15.03-39.69,36.64-39.69,36.64,17.15,36.64,39.69-15.03,39.46-36.64,39.46Z"/>
        <path fill="#ffffff" d="M516.24,329.3v-20.71s-28.31-.02-28.31-.02v125.13s28.31,0,28.31,0v-65.23c-.47-19.68,11.09-34.13,29.5-34.22,4.25-.02,8.44,1.25,11.8,2.67v-30.76c-1.89-.71-5.39-1.77-8.93-1.77-15.34,0-27.48,8.69-32.37,24.91Z"/>
        <path fill="#ffffff" d="M442.15,403.76c-3.91,2.22-9.06,5.16-16.67,5.16-3.22,0-6.54-.95-9.49-2.25-3.62-1.59-7.19-3.88-9.46-7.1-1.27-1.8-2.04-3.02-2.96-5.61-.68-1.9-1.26-5.67-1.33-7.97,0-.24-.03-.48-.03-.72,0-.56,0-1.11,0-1.67,0-.67,0-1.35,0-2.02,0-.78,0-1.56,0-2.34,0-.88,0-1.76,0-2.64,0-.97,0-1.94,0-2.91,0-1.05,0-2.1,0-3.15,0-1.12,0-2.25,0-3.37,0-1.19,0-2.37,0-3.56,0-1.24,0-2.48,0-3.72,0-1.28,0-2.57,0-3.85,0-1.32,0-2.64,0-3.95,0-1.34,0-2.69,0-4.03,0-1.36,0-2.72,0-4.08,0-1.37,0-2.74,0-4.11,0-1.37,0-2.74,0-4.11,0-1.37,0-2.74,0-4.1,0-1.36,0-2.72,0-4.07,0-1.34,0-2.68,0-4.02,0-1.31,0-2.62,0-3.93,0-1.27,0-2.54,0-3.82s0-2.45,0-3.68c0-1.17,0-2.34,0-3.51,0-1.11,0-2.21,0-3.32,0-1.03,0-2.06,0-3.09,0-.95,0-1.9,0-2.84,0-.86,0-1.71,0-2.57,0-.75,0-1.51,0-2.26,0-.64,0-1.29,0-1.93,0-.52,0-1.05,0-1.57.01-1.39.75-2.55,2.67-2.56,8.7-.05,53.03,0,53.03,0v-28.37h-53.34c-1.05,0-2.34-.98-2.38-2.49v-39.88l-28.12,16.89-.13,144.49c-1.19,30.68,23.01,50.48,42.49,50.51,14.85.66,26.92-2.2,35.6-6.56,9.58-4.82,16.74-11.69,21.49-17.95l-20.84-14.54s-5.77,6.42-10.47,9.09Z"/>
        <g>
          <path fill="#ef7e24" d="M304.23,281.23c14.18,0,29.62,7.97,34.26,27.33l12.94-7.89v-48.25l-47.96,28.81c.25-.01.5,0,.76,0Z"/>
          <path fill="#ef7e24" d="M300.55,290.75c-1.43-.08-3.27-.05-4.78-.06-1.78,0-5.02-.03-8.06,0l-43.46,26.09c9.72,0,24.99.07,31.96-.05,2.05-.04,4.25.03,6.31.36,5.09.8,13.72,5.24,14.37,16.67v100.06l28.83-17.56v-101.59c-.96-13.49-11.67-23.17-25.18-23.92Z"/>
          <path fill="#ef7e24" d="M263.57,330.2c-6.87.14-30.26,0-41.63,0l-47.07,28.27h47.88c2.36,0,7.54.04,9.6,0,3.7-.08,3.97-.18,6.99.63,5.12,1.37,9.88,5.58,11.64,11.35.27.89.75,4.06.75,4.98v58.39l28.83-17.56s-.22-62.53,0-65.53c1.18-15.72-10.52-20.66-16.97-20.53Z"/>
        </g>
        <path fill="#ffffff" d="M1007.91,259.28c-9.19,0-16.55,7.58-16.55,16.77,0,9.65,7.35,16.78,16.55,16.78,9.65,0,17.24-7.12,17.24-16.78s-7.58-16.77-17.24-16.77Z"/>
      </g>
    </g>
  </g>
</svg>
